<svg xmlns="http://www.w3.org/2000/svg" width="231.339" height="31.419" viewBox="0 0 231.339 31.419"><g transform="translate(-70.76 -57)"><path d="M86.543,62.6a5.979,5.979,0,0,0-3.062.9,5.355,5.355,0,0,0-2.088,3.258c-.348,1.224-.276,2.1.221,2.628a2.665,2.665,0,0,0,2.034.785l6.82-.044a6.359,6.359,0,0,0,.768.044,7.217,7.217,0,0,1,.8.044,7.5,7.5,0,0,1,2.2.5,3.1,3.1,0,0,1,1.609,1.513,4.852,4.852,0,0,1,.557,2.317,12.658,12.658,0,0,1-.3,2.8c-.059.291-.127.575-.195.851s-.146.563-.231.854q-1.644,5.47-4.484,7.414a11.64,11.64,0,0,1-6.757,1.953H70.76l1.615-5.606H85.241a6.433,6.433,0,0,0,3.144-.7c.972-.493,1.627-1.617,1.974-3.37.286-1.366.131-2.217-.456-2.534a5.045,5.045,0,0,0-2.267-.527l-6.043-.045c-2.525.029-4.327-.614-5.411-1.947S75.071,69.972,76.1,66.5q1.644-5.469,4.517-7.459A11.591,11.591,0,0,1,87.4,57.046L100.85,57l-1.612,5.6Z" fill="#fc5400"/><path d="M108.7,65.531a30.405,30.405,0,0,0-3.274,7.219c-.136.468-.267.946-.409,1.425s-.268.969-.392,1.465a19.331,19.331,0,0,0-.418,3,6.048,6.048,0,0,0,.371,2.6,2.283,2.283,0,0,0,1.466,1.465,7.652,7.652,0,0,0,2.113.283h.306l8.454-.041-1.577,5.47h-8.678a14.633,14.633,0,0,1-3.859-.485A5.2,5.2,0,0,1,99.823,85.7a8.8,8.8,0,0,1-1.354-5.224,27.163,27.163,0,0,1,.94-6.324c.113-.465.237-.919.373-1.357s.282-.872.432-1.31q2.521-7.44,6.3-10.941a13.226,13.226,0,0,1,9.329-3.5L124.4,57l-1.549,5.385h-8.446a6.469,6.469,0,0,0-5.7,3.146" fill="#fc5400"/><path d="M140.838,57a6.147,6.147,0,0,0,.717.044,6.024,6.024,0,0,1,.717.044,8.45,8.45,0,0,1,2.581.567,3.46,3.46,0,0,1,1.841,1.795,5.869,5.869,0,0,1,.613,2.666,13.961,13.961,0,0,1-.349,3.151c-.055.205-.111.41-.161.613s-.1.406-.158.614a15.78,15.78,0,0,1-2.808,5.665,9,9,0,0,1-4.673,3.174l2.317,13.084h-5.787l-1.817-12.342h-6.055l-3.559,12.342h-5.141L128.176,57ZM138,62.6h-6.3l-2.283,7.918h6.3a.166.166,0,0,0,.124.041h.137a8.08,8.08,0,0,0,3.157-.63c1.016-.419,1.774-1.541,2.277-3.345q.806-2.8-.444-3.373a7.143,7.143,0,0,0-2.981-.567Z" fill="#fc5400"/><path d="M166.154,57l1.351,31.412h-5.714l-.093-7.477H151.086l-4.336,7.477h-5.409L160.71,57ZM154.369,75.333h7.279l-.227-12.075Z" fill="#fc5400"/><path d="M189.431,57a.069.069,0,0,0,.068.044h1.379a9.364,9.364,0,0,1,1.273.086,9.5,9.5,0,0,1,2.175.42,4.475,4.475,0,0,1,1.814,1.068,5.173,5.173,0,0,1,1.5,3.721,16.38,16.38,0,0,1-.624,4.941,18.244,18.244,0,0,1-1.947,4.553,12.208,12.208,0,0,1-3.236,3.634,9.161,9.161,0,0,1-3.258,1.549,18.937,18.937,0,0,1-3.211.46h-1.634l-6.217-.044L174.35,88.419h-5.142L178.267,57Zm-1.683,5.6h-5.953l-2.677,9.276h6.26a6.914,6.914,0,0,0,3.507-.941,5.838,5.838,0,0,0,2.41-3.655q.942-3.02-.341-3.827a5.954,5.954,0,0,0-3.218-.809Z" fill="#fc5400"/><path d="M207.234,64.415a13.423,13.423,0,0,0-3.124,5.408l14.239-.044-1.582,5.468H202.51a18.379,18.379,0,0,0-.634,3.191,5.86,5.86,0,0,0,.367,2.8,2.193,2.193,0,0,0,1.432,1.463,7.527,7.527,0,0,0,2.112.285h.307l8.453-.047-1.577,5.476h-8.677a14.668,14.668,0,0,1-3.86-.484,5.226,5.226,0,0,1-2.979-2.234,8.819,8.819,0,0,1-1.354-5.227,27.1,27.1,0,0,1,.942-6.322c.108-.47.235-.917.372-1.357s.28-.873.432-1.312q2.516-7.433,6.3-10.94a13.208,13.208,0,0,1,9.326-3.5L222.029,57l-1.578,5.469h-8.438a6.743,6.743,0,0,0-4.779,1.944" fill="#fc5400"/><path d="M239.182,57a6.228,6.228,0,0,0,.717.044,5.96,5.96,0,0,1,.717.044,8.45,8.45,0,0,1,2.581.567,3.468,3.468,0,0,1,1.844,1.795,5.908,5.908,0,0,1,.613,2.666,13.8,13.8,0,0,1-.352,3.151c-.055.205-.111.41-.161.613s-.1.406-.155.614a15.833,15.833,0,0,1-2.811,5.665,9,9,0,0,1-4.674,3.174l2.32,13.084h-5.786l-1.82-12.342H226.16L222.6,88.419H217.46L226.519,57Zm-2.842,5.6h-6.3l-2.283,7.918h6.3a.166.166,0,0,0,.124.041h.137a8.069,8.069,0,0,0,3.157-.63c1.016-.419,1.777-1.541,2.277-3.345q.805-2.8-.441-3.373a7.167,7.167,0,0,0-2.984-.567Z" fill="#fc5400"/><path d="M243.016,88.416,252.076,57h5.379L248.4,88.416Z" fill="#fc5400"/><path d="M258.416,62.514l1.577-5.47h21.1l-1.577,5.47H271.59l-7.479,25.9h-5.3l7.468-25.9Z" fill="#fc5400"/><path d="M287.3,64.415a13.469,13.469,0,0,0-3.124,5.408l14.237-.044-1.579,5.468H282.58a18.38,18.38,0,0,0-.634,3.191,5.885,5.885,0,0,0,.367,2.8,2.2,2.2,0,0,0,1.431,1.463,7.576,7.576,0,0,0,2.116.285h.306l8.451-.047-1.574,5.476h-8.677a14.649,14.649,0,0,1-3.861-.484,5.208,5.208,0,0,1-2.981-2.234,8.812,8.812,0,0,1-1.354-5.227,27.2,27.2,0,0,1,.94-6.322c.112-.47.237-.917.373-1.357s.284-.873.432-1.312q2.521-7.433,6.3-10.94a13.219,13.219,0,0,1,9.329-3.5L302.1,57l-1.578,5.469h-8.435a6.747,6.747,0,0,0-4.783,1.944" fill="#fc5400"/></g></svg>